<?xml version="1.0" encoding="UTF-8" standalone="no"?>
<!-- Created with Inkscape (http://www.inkscape.org/) -->

<svg
   xmlns:dc="http://purl.org/dc/elements/1.1/"
   xmlns:cc="http://creativecommons.org/ns#"
   xmlns:rdf="http://www.w3.org/1999/02/22-rdf-syntax-ns#"
   xmlns:svg="http://www.w3.org/2000/svg"
   xmlns="http://www.w3.org/2000/svg"
   version="1.1"
   width="892.91339"
   height="221.45668"
   id="svg3147">
  <defs
     id="defs3149">
    <clipPath
       id="clipPath3033">
      <path
         d="m 28.757,447.672 151.503,0 0,-36.859 -151.503,0 0,36.859 z"
         id="path3035" />
    </clipPath>
    <clipPath
       id="clipPath3039">
      <path
         d="m 28.757,410.931 151.505,0 0,36.741 -151.505,0 0,-36.741 z"
         id="path3041" />
    </clipPath>
    <clipPath
       id="clipPath3045">
      <path
         d="m 28.755,447.599 151.534,0 0,-70.59 -151.534,0 0,70.59 z"
         id="path3047" />
    </clipPath>
    <clipPath
       id="clipPath3051">
      <path
         d="m -1,842 597.276,0 0,-843.89 L -1,-1.89 -1,842 z"
         id="path3053" />
    </clipPath>
    <clipPath
       id="clipPath3057">
      <path
         d="m 0.03,841.98 595.26,0 0,-841.92 -595.26,0 0,841.92 z"
         id="path3059" />
    </clipPath>
  </defs>
  <metadata
     id="metadata3152">
    <rdf:RDF>
      <cc:Work
         rdf:about="">
        <dc:format>image/svg+xml</dc:format>
        <dc:type
           rdf:resource="http://purl.org/dc/dcmitype/StillImage" />
        <dc:title></dc:title>
      </cc:Work>
    </rdf:RDF>
  </metadata>
  <g
     transform="translate(74.689371,-490.96581)"
     id="layer1">
    <g
       transform="matrix(5.8469256,0,0,-5.8469256,-239.2861,3111.5747)"
       id="g3029">
      <g
         clip-path="url(#clipPath3033)"
         id="g3031">
        <g
           clip-path="url(#clipPath3039)"
           id="g3037">
          <g
             clip-path="url(#clipPath3045)"
             id="g3043">
            <g
               clip-path="url(#clipPath3051)"
               id="g3049">
              <g
                 clip-path="url(#clipPath3057)"
                 id="g3055">
                <path
                   d="m 84.54,437.499 -19.929,0 0,-5.43 7.03,0 0,-20.442 5.868,0 0,20.442 7.031,0 0,5.43"
                   id="path3061"
                   style="fill:#696a6c;fill-opacity:1;fill-rule:nonzero;stroke:none" />
                <path
                   d="m 86.725,423.56 c 0.182,0.805 0.366,1.684 1.134,2.526 0.55,0.585 1.502,1.244 2.856,1.244 0.987,0 2.05,-0.365 2.745,-1.061 0.806,-0.842 0.951,-1.904 1.061,-2.709 l -7.796,0 z m 9.151,-4.905 c -0.696,-1.354 -1.757,-3.368 -4.832,-3.368 -3.038,0 -4.392,2.379 -4.356,4.759 l 13.653,0 c -0.072,2.159 -0.219,5.894 -2.708,8.566 -2.453,2.635 -5.747,2.745 -6.882,2.745 -7.54,0 -9.81,-5.93 -9.81,-10.542 0,-6.26 3.99,-9.884 9.664,-9.884 3.075,0 5.564,1.172 7.211,2.71 0.988,0.914 1.647,1.867 2.306,2.854 l -4.246,2.16"
                   id="path3063"
                   style="fill:#696a6c;fill-opacity:1;fill-rule:nonzero;stroke:none" />
                <path
                   d="m 108.374,429.015 c 0.551,0.585 0.916,1.024 1.904,1.5 0.88,0.366 2.124,0.696 3.477,0.696 1.137,0 2.417,-0.22 3.406,-0.769 2.013,-1.061 2.524,-2.782 2.524,-5.747 l 0,-13.068 -5.599,0 0,10.762 c 0,1.721 -0.036,2.343 -0.257,2.855 -0.438,1.025 -1.427,1.464 -2.524,1.464 -2.966,0 -2.966,-2.379 -2.966,-4.758 l 0,-10.323 -5.638,0 0,19.071 5.673,0 0,-1.683"
                   id="path3065"
                   style="fill:#696a6c;fill-opacity:1;fill-rule:nonzero;stroke:none" />
                <path
                   d="m 133.306,420.778 c -0.036,-1.977 -0.109,-3.733 -1.975,-4.905 -0.587,-0.365 -1.246,-0.622 -1.942,-0.622 -1.318,0 -2.123,1.026 -2.123,1.94 0,1.464 1.465,2.013 2.417,2.379 l 3.623,1.208 z m -5.124,4.539 c 0.145,0.696 0.474,2.234 2.964,2.234 2.014,0 2.087,-1.465 2.16,-2.344 l 0,-1.024 c -2.379,-0.44 -6.003,-1.099 -7.541,-1.757 -1.574,-0.661 -4.026,-2.416 -4.026,-5.492 0,-2.672 1.868,-5.819 6.259,-5.819 2.819,0 4.429,1.207 5.857,2.269 l 0,-1.757 5.527,0 c -0.44,0.658 -0.549,0.952 -0.549,3.002 l 0,11.127 c 0,4.942 -5.673,5.491 -8.016,5.491 -2.235,0 -4.503,-0.293 -6.259,-1.683 -1.721,-1.354 -1.904,-2.929 -2.014,-4.247 l 5.638,0"
                   id="path3067"
                   style="fill:#696a6c;fill-opacity:1;fill-rule:nonzero;stroke:none" />
                <path
                   d="m 147.485,428.757 c 1.244,1.063 2.598,1.905 5.527,2.197 l 0,-4.978 -1.867,-0.293 c -2.709,-0.476 -3.514,-0.879 -3.514,-3.294 l 0,-10.762 -5.638,0 0,19.145 5.492,0 0,-2.015"
                   id="path3069"
                   style="fill:#696a6c;fill-opacity:1;fill-rule:nonzero;stroke:none" />
                <path
                   d="m 155.174,437.507 5.563,0 0,-4.356 -5.563,0 0,4.356 z m 0,-6.735 5.563,0 0,-19.145 -5.563,0 0,19.145 z"
                   id="path3071"
                   style="fill:#696a6c;fill-opacity:1;fill-rule:nonzero;stroke:none" />
                <path
                   d="m 165.511,418.071 c 1.537,-1.503 3.441,-2.638 5.563,-2.638 1.355,0 3.404,0.44 3.404,1.868 0,0.658 -0.402,0.915 -0.733,1.098 -0.841,0.439 -2.157,0.55 -3.255,0.732 -0.842,0.146 -1.722,0.329 -2.563,0.586 -1.172,0.329 -2.343,0.805 -3.185,1.646 -0.842,0.842 -1.429,2.161 -1.429,3.589 0,3.147 2.71,6.405 8.055,6.405 4.502,0 7.211,-1.94 8.528,-2.854 l -3.477,-3.222 c -1.795,1.39 -3.478,1.904 -4.795,1.904 -2.198,0 -2.709,-0.879 -2.709,-1.429 0,-1.098 1.207,-1.317 3.038,-1.646 3.844,-0.696 8.309,-1.721 8.309,-6.26 0,-4.502 -4.537,-6.699 -9.042,-6.699 -5.307,0 -8.053,2.563 -9.259,3.697 l 3.55,3.223"
                   id="path3073"
                   style="fill:#696a6c;fill-opacity:1;fill-rule:nonzero;stroke:none" />
                <path
                   d="m 28.757,422.69 28.824,0 0,-0.89 -28.824,0 0,0.89 z"
                   id="path3075"
                   style="fill:#009d57;fill-opacity:1;fill-rule:nonzero;stroke:none" />
                <path
                   d="m 28.757,437.499 28.824,0 0,-5.432 -28.824,0 0,5.432 z"
                   id="path3077"
                   style="fill:#009d57;fill-opacity:1;fill-rule:nonzero;stroke:none" />
                <path
                   d="m 28.757,445.659 28.824,0 0,-1.36 -28.824,0 0,1.36 z"
                   id="path3079"
                   style="fill:#009d57;fill-opacity:1;fill-rule:nonzero;stroke:none" />
                <path
                   d="m 28.757,425.261 28.824,0 0,-1.358 -28.824,0 0,1.358 z"
                   id="path3081"
                   style="fill:#006bb6;fill-opacity:1;fill-rule:nonzero;stroke:none" />
                <path
                   d="m 28.757,442.634 28.824,0 0,-2.718 -28.824,0 0,2.718 z"
                   id="path3083"
                   style="fill:#006bb6;fill-opacity:1;fill-rule:nonzero;stroke:none" />
                <path
                   d="m 28.757,429.645 28.824,0 0,-2.718 -28.824,0 0,2.718 z"
                   id="path3085"
                   style="fill:#a53493;fill-opacity:1;fill-rule:nonzero;stroke:none" />
                <path
                   d="m 28.757,447.66 28.824,0 0,-0.878 -28.824,0 0,0.878 z"
                   id="path3087"
                   style="fill:#a53493;fill-opacity:1;fill-rule:nonzero;stroke:none" />
              </g>
            </g>
          </g>
        </g>
      </g>
    </g>
  </g>
</svg>
